<svg width="25" height="24" viewBox="0 0 25 24" fill="none" xmlns="http://www.w3.org/2000/svg">
    <path d="M20.3333 8.25V18C20.3333 21 18.5433 22 16.3333 22H8.33325C6.12325 22 4.33325 21 4.33325 18V8.25C4.33325 5 6.12325 4.25 8.33325 4.25C8.33325 4.87 8.58323 5.43 8.99323 5.84C9.40323 6.25 9.96325 6.5 10.5833 6.5H14.0833C15.3233 6.5 16.3333 5.49 16.3333 4.25C18.5433 4.25 20.3333 5 20.3333 8.25Z" stroke="#666870" stroke-width="1.5" stroke-linecap="round" stroke-linejoin="round"/>
    <path d="M16.3333 4.25C16.3333 5.49 15.3233 6.5 14.0833 6.5H10.5833C9.96325 6.5 9.40323 6.25 8.99323 5.84C8.58323 5.43 8.33325 4.87 8.33325 4.25C8.33325 3.01 9.34325 2 10.5833 2H14.0833C14.7033 2 15.2633 2.25 15.6733 2.66C16.0833 3.07 16.3333 3.63 16.3333 4.25Z" stroke="#666870" stroke-width="1.5" stroke-linecap="round" stroke-linejoin="round"/>
    <path d="M8.33325 13H12.3333" stroke="#666870" stroke-width="1.5" stroke-linecap="round" stroke-linejoin="round"/>
    <path d="M8.33325 17H16.3333" stroke="#666870" stroke-width="1.5" stroke-linecap="round" stroke-linejoin="round"/>
</svg>
