<svg width="16" height="16" viewBox="0 0 16 16" fill="none" xmlns="http://www.w3.org/2000/svg">
    <path d="M8.10664 7.24665C8.03998 7.23998 7.95998 7.23998 7.88664 7.24665C6.29998 7.19331 5.03998 5.89331 5.03998 4.29331C5.03998 2.65998 6.35998 1.33331 7.99998 1.33331C9.63331 1.33331 10.96 2.65998 10.96 4.29331C10.9533 5.89331 9.69331 7.19331 8.10664 7.24665Z" fill="#666870"/>
    <path d="M4.77335 9.70669C3.16002 10.7867 3.16002 12.5467 4.77335 13.62C6.60669 14.8467 9.61335 14.8467 11.4467 13.62C13.06 12.54 13.06 10.78 11.4467 9.70669C9.62002 8.48669 6.61335 8.48669 4.77335 9.70669Z" fill="#666870"/>
</svg>
