<svg id="vector" xmlns="http://www.w3.org/2000/svg" width="512" height="512" viewBox="0 0 74 74"><path fill="#000000FF" d="m61.309,64h-48.618a5.692,5.692 0,0 1,-4.66 -8.959c2.955,-4.206 4.939,-12.26 4.939,-17.143v-4.293c0,-13.258 10.574,-24.242 23.571,-24.484a24.035,24.035 0,0 1,24.488 24.026v4.753c0,4.883 1.985,12.937 4.939,17.143a5.692,5.692 0,0 1,-4.659 8.957zM9.668,56.19a3.692,3.692 0,0 0,3.023 5.81h48.618a3.692,3.692 0,0 0,3.023 -5.81c-3.275,-4.663 -5.3,-13.125 -5.3,-18.292v-4.75a22.034,22.034 0,0 0,-22.45 -22.025c-11.915,0.222 -21.608,10.308 -21.608,22.484v4.293c0,5.167 -2.027,13.63 -5.3,18.292z" id="path_0"/><path fill="#000000FF" d="m37,11.118a4.559,4.559 0,1 1,4.559 -4.559,4.564 4.564,0 0,1 -4.559,4.559zM37,4a2.559,2.559 0,1 0,2.559 2.559,2.562 2.562,0 0,0 -2.559,-2.559z" id="path_1"/><path fill="#000000FF" d="m37,72a9.01,9.01 0,0 1,-9 -9h2a7,7 0,0 0,14 0h2a9.01,9.01 0,0 1,-9 9z" id="path_2"/></svg>