<svg id="vector" xmlns="http://www.w3.org/2000/svg" width="512" height="512" viewBox="0 0 512 512"><path fill="#a6f5cf" d="m415.002,97.856c-51.632,0 -93.489,41.849 -93.489,93.472 0,27.22 11.64,51.718 30.212,68.801v24.645l22.292,-9.418c12.376,6.046 26.283,9.443 40.985,9.443 51.632,0 93.489,-41.849 93.489,-93.472 0,-51.622 -41.857,-93.471 -93.489,-93.471z" id="path_0"/><path fill="#8aedbd" d="m415.002,97.856c-7.094,0 -14.004,0.79 -20.646,2.287 41.699,9.397 72.843,46.654 72.843,91.185 0,44.528 -31.142,81.784 -72.838,91.184 6.64,1.497 13.548,2.288 20.641,2.288 51.632,0 93.489,-41.849 93.489,-93.472s-41.857,-93.472 -93.489,-93.472z" id="path_1"/><path fill="#fff" d="m415.002,227.585c-4.276,0 -7.742,-3.466 -7.742,-7.742v-25.402c0,-4.276 3.466,-7.742 7.742,-7.742 4.58,0 8.842,-1.833 12.001,-5.159 3.157,-3.326 4.764,-7.687 4.525,-12.281 -0.447,-8.605 -7.555,-15.482 -16.181,-15.656 -8.407,-0.126 -15.58,5.947 -16.736,14.229 -0.106,0.759 -0.159,1.539 -0.159,2.318 0,4.276 -3.466,7.742 -7.742,7.742s-7.742,-3.466 -7.742,-7.742c0,-1.491 0.104,-2.99 0.307,-4.457 2.24,-16.047 16.152,-27.913 32.384,-27.57 16.704,0.336 30.467,13.66 31.333,30.333 0.461,8.877 -2.65,17.31 -8.76,23.745 -4.214,4.439 -9.625,7.553 -15.488,9.022v18.619c0,4.277 -3.466,7.743 -7.742,7.743z" id="path_2"/><path fill="#fff" d="m415.002,251.328c9.963,0 9.98,-15.484 0,-15.484 -9.963,0 -9.98,15.484 0,15.484z" id="path_3"/><path fill="#ffd54d" d="m2.118,140.356c0,-77.517 63.378,-140.356 141.558,-140.356s141.558,62.839 141.558,140.356v143.326h-284.025z" id="path_4"/><path fill="#ffc919" d="m143.676,0c-7.013,0 -13.906,0.506 -20.646,1.482 68.395,9.909 120.912,68.31 120.912,138.874v143.326h41.291v-143.326c0.001,-77.517 -63.376,-140.356 -141.557,-140.356z" id="path_5"/><path fill="#d4d9ff" d="m0,433.24v-21.561c0,-78.679 64.328,-142.46 143.68,-142.46s143.68,63.781 143.68,142.46v21.561z" id="path_6"/><path fill="#bdc4ff" d="m143.848,296.201c-4.276,0 -7.742,3.466 -7.742,7.742v129.297c0,4.276 3.466,7.742 7.742,7.742s7.742,-3.466 7.742,-7.742v-129.297c0,-4.276 -3.466,-7.742 -7.742,-7.742z" id="path_7"/><path fill="#f4f4f4" d="m91.774,269.219 l-46.057,38.26 59.431,40.656 38.7,-44.192z" id="path_8"/><path fill="#f4f4f4" d="m195.922,269.219 l46.057,38.26 -59.431,40.656 -38.7,-44.192z" id="path_9"/><path fill="#ffdbd3" d="m51.03,175.072c-3.427,9.904 -5.313,20.517 -5.313,31.574 0,53.736 43.935,97.297 98.131,97.297s98.131,-43.561 98.131,-97.297c0,-11.056 -5.313,-31.574 -5.313,-31.574 -50.499,-11.771 -68.698,-63.858 -68.698,-63.858 -28.826,76.244 -116.938,63.858 -116.938,63.858z" id="path_10"/><path fill="#fff" d="m186.23,267.918h-41.01c-4.276,0 -7.742,-3.466 -7.742,-7.742s3.466,-7.742 7.742,-7.742h41.011c30.729,0 55.729,-24.758 55.729,-55.189 0,-4.276 3.466,-7.742 7.742,-7.742s7.742,3.466 7.742,7.742c0,38.97 -31.947,70.673 -71.214,70.673z" id="path_11"/><path fill="#fff" d="m249.37,181.366c-4.276,0 -7.742,-3.466 -7.742,-7.742v-30.279c0,-53.764 -44.145,-97.505 -98.406,-97.505s-98.406,43.741 -98.406,97.505v30.279c0,4.276 -3.466,7.742 -7.742,7.742s-7.742,-3.466 -7.742,-7.742v-30.279c0,-62.303 51.091,-112.989 113.89,-112.989s113.89,50.686 113.89,112.989v30.279c0,4.277 -3.466,7.742 -7.742,7.742z" id="path_12"/><path fill="#7776d0" d="m37.159,228.711h-0.172c-11.086,0 -20.073,-8.987 -20.073,-20.073v-25.263c0,-11.086 8.987,-20.073 20.073,-20.073h0.172c11.086,0 20.073,8.987 20.073,20.073v25.263c0,11.086 -8.987,20.073 -20.073,20.073z" id="path_13"/><path fill="#7776d0" d="m249.456,228.711h-0.172c-11.086,0 -20.073,-8.987 -20.073,-20.073v-25.263c0,-11.086 8.987,-20.073 20.073,-20.073h0.172c11.086,0 20.073,8.987 20.073,20.073v25.263c0,11.086 -8.987,20.073 -20.073,20.073z" id="path_14"/><path fill="#7776d0" d="M127.837,259.247a18.477,18.32 0,1 0,36.954 0a18.477,18.32 0,1 0,-36.954 0z" id="path_15"/><path fill="#ffd54d" d="m42.693,400.399h59.261v29.685h-59.261z" id="path_16"/><path fill="#6967bf" d="m436.781,512h-297.758c-8.931,0 -16.172,-7.24 -16.172,-16.172v-13.341h330.101v13.341c0,8.932 -7.24,16.172 -16.171,16.172z" id="path_17"/><path fill="#7776d0" d="m463.724,512h-219.686c-9.581,0 -16.781,-8.743 -14.943,-18.146l28.447,-145.573c1.827,-9.348 10.017,-16.092 19.541,-16.092h219.686c9.581,0 16.781,8.743 14.943,18.146l-28.447,145.573c-1.826,9.347 -10.016,16.092 -19.541,16.092z" id="path_18"/><path fill="#6967bf" d="m496.769,332.188h-41.291c9.581,0 16.781,8.743 14.943,18.146l-28.447,145.573c-1.826,9.348 -10.017,16.093 -19.541,16.093h41.291c9.524,0 17.715,-6.745 19.541,-16.092l28.446,-145.573c1.839,-9.404 -5.361,-18.147 -14.942,-18.147z" id="path_19"/><path fill="#fff" d="M370.404,422.094m-24.196,0a24.196,24.196 0,1 1,48.392 0a24.196,24.196 0,1 1,-48.392 0" id="path_20"/></svg>