<svg width="25" height="24" viewBox="0 0 25 24" fill="none" xmlns="http://www.w3.org/2000/svg">
    <path d="M17.6667 9C17.6667 12.87 14.3067 16 10.1667 16L9.23676 17.12L8.68675 17.78C8.21675 18.34 7.31674 18.22 7.00674 17.55L5.66675 14.6C3.84675 13.32 2.66675 11.29 2.66675 9C2.66675 5.13 6.02675 2 10.1667 2C13.1867 2 15.7968 3.67001 16.9668 6.07001C17.4168 6.96001 17.6667 7.95 17.6667 9Z" stroke="#666870" stroke-width="1.5" stroke-linecap="round" stroke-linejoin="round"/>
    <path d="M22.6668 12.86C22.6668 15.15 21.4868 17.18 19.6668 18.46L18.3268 21.41C18.0168 22.08 17.1168 22.21 16.6468 21.64L15.1668 19.86C12.7468 19.86 10.5868 18.79 9.23682 17.12L10.1668 16C14.3068 16 17.6668 12.87 17.6668 9C17.6668 7.95 17.4168 6.96001 16.9668 6.07001C20.2368 6.82001 22.6668 9.57999 22.6668 12.86Z" stroke="#666870" stroke-width="1.5" stroke-linecap="round" stroke-linejoin="round"/>
    <path d="M7.66675 9H12.6667" stroke="#666870" stroke-width="1.5" stroke-linecap="round" stroke-linejoin="round"/>
</svg>
